HIERARCHY
ROOT Hips
{
	OFFSET -0.001795 -0.223333 0.028219
	CHANNELS 6 Xposition Yposition Zposition Zrotation Yrotation Xrotation 
	JOINT LeftUpLeg
	{
		OFFSET 0.069520 -0.091406 -0.006815
		CHANNELS 3 Zrotation Yrotation Xrotation
		JOINT LeftLeg
		{
			OFFSET 0.034277 -0.375199 -0.004496
			CHANNELS 3 Zrotation Yrotation Xrotation
			JOINT LeftFoot
			{
				OFFSET -0.013596 -0.397961 -0.043693
				CHANNELS 3 Zrotation Yrotation Xrotation
				JOINT LeftToe
				{
					OFFSET 0.026358 -0.055791 0.119288
					CHANNELS 3 Zrotation Yrotation Xrotation
					End Site
					{
						OFFSET 0.000000 0.000000 0.000000
					}
				}
			}
		}
	}
	JOINT RightUpLeg
	{
		OFFSET -0.067670 -0.090522 -0.004320
		CHANNELS 3 Zrotation Yrotation Xrotation
		JOINT RightLeg
		{
			OFFSET -0.038290 -0.382569 -0.008850
			CHANNELS 3 Zrotation Yrotation Xrotation
			JOINT RightFoot
			{
				OFFSET 0.015774 -0.398415 -0.042312
				CHANNELS 3 Zrotation Yrotation Xrotation
				JOINT RightToe
				{
					OFFSET -0.025372 -0.048144 0.123348
					CHANNELS 3 Zrotation Yrotation Xrotation
					End Site
					{
						OFFSET 0.000000 0.000000 0.000000
					}
				}
			}
		}
	}
	JOINT Spine
	{
		OFFSET -0.002533 0.108963 -0.026696
		CHANNELS 3 Zrotation Yrotation Xrotation
		JOINT Spine1
		{
			OFFSET 0.005487 0.135180 0.001092
			CHANNELS 3 Zrotation Yrotation Xrotation
			JOINT Spine2
			{
				OFFSET 0.001457 0.052922 0.025425
				CHANNELS 3 Zrotation Yrotation Xrotation
				JOINT Neck
				{
					OFFSET -0.002778 0.213870 -0.042857
					CHANNELS 3 Zrotation Yrotation Xrotation
					JOINT Head
					{
						OFFSET 0.005152 0.064970 0.051349
						CHANNELS 3 Zrotation Yrotation Xrotation
						End Site
						{
							OFFSET 0.000000 0.000000 0.000000
						}
					}
				}
				JOINT LeftShoulder
				{
					OFFSET 0.078845 0.121749 -0.034090
					CHANNELS 3 Zrotation Yrotation Xrotation
					JOINT LeftArm
					{
						OFFSET 0.090977 0.030469 -0.008868
						CHANNELS 3 Zrotation Yrotation Xrotation
						JOINT LeftForeArm
						{
							OFFSET 0.259612 -0.012772 -0.027456
							CHANNELS 3 Zrotation Yrotation Xrotation
							JOINT LeftHand
							{
								OFFSET 0.249234 0.008986 -0.001171
								CHANNELS 3 Zrotation Yrotation Xrotation
								End Site
								{
									OFFSET 0.000000 0.000000 0.000000
								}
							}
						}
					}
				}
				JOINT RightShoulder
				{
					OFFSET -0.081759 0.118833 -0.038615
					CHANNELS 3 Zrotation Yrotation Xrotation
					JOINT RightArm
					{
						OFFSET -0.096012 0.032551 -0.009143
						CHANNELS 3 Zrotation Yrotation Xrotation
						JOINT RightForeArm
						{
							OFFSET -0.253742 -0.013329 -0.021401
							CHANNELS 3 Zrotation Yrotation Xrotation
							JOINT RightHand
							{
								OFFSET -0.255298 0.007772 -0.005559
								CHANNELS 3 Zrotation Yrotation Xrotation
								End Site
								{
									OFFSET 0.000000 0.000000 0.000000
								}
							}
						}
					}
				}
			}
		}
	}
}
MOTION
Frames: 8
Frame Time: 0.050000
0.131962 0.936998 0.962920 -4.161224 27.471758 -4.894259 2.098432 -0.002979 8.888444 0.805486 -0.339783 4.872018 4.616136 9.494920 2.500880 0.000000 0.000000 0.000000 -0.579219 0.857237 -20.862940 4.590791 -2.653728 21.704944 -7.045167 -14.137192 17.751539 0.000000 0.000000 0.000000 -3.501657 -0.213227 6.377906 0.055070 -0.437102 2.881124 3.657629 -5.184776 12.498250 -5.923262 5.516965 -7.122301 0.000000 0.000000 0.000000 -11.335982 -7.660099 1.068453 -43.569951 -21.846759 1.946145 136.700016 -45.065034 -90.933548 0.000000 0.000000 0.000000 7.557348 13.412587 6.243577 38.817669 30.613743 4.893077 -129.663928 44.344017 -66.776645 0.000000 0.000000 0.000000 
0.141407 0.936128 0.997485 -4.535682 32.047118 -5.778551 3.802498 -0.543904 11.854440 0.602236 -0.267052 4.080217 2.997867 6.316246 1.907938 0.000000 0.000000 0.000000 -1.043039 0.518156 -20.317979 4.047207 -1.821223 14.709493 -5.588761 -10.694746 19.730220 0.000000 0.000000 0.000000 -3.799489 -0.271910 7.180514 1.187776 -0.964659 2.194802 3.190270 -5.682275 13.059131 -5.338175 5.242639 -7.077417 0.000000 0.000000 0.000000 -9.875010 -7.900400 0.989089 -46.221569 -23.001650 2.442780 138.440107 -46.618927 -97.067245 0.000000 0.000000 0.000000 7.164704 13.371264 6.425198 38.731091 31.274384 5.139009 -127.890940 45.073273 -64.484683 0.000000 0.000000 0.000000 
0.153326 0.933156 1.035801 -3.834946 34.252908 -5.541341 4.108279 -0.845233 13.779420 0.610571 -0.310660 4.690304 2.378972 5.699345 2.669760 0.000000 0.000000 0.000000 -0.405951 0.579107 -19.644432 2.323603 -1.410015 15.029021 -3.842038 -7.515708 17.858419 0.000000 0.000000 0.000000 -3.818882 -0.289559 7.428831 1.238408 -0.775307 0.807930 2.689099 -4.342905 14.147270 -4.001252 4.373047 -5.950173 0.000000 0.000000 0.000000 -9.751217 -7.220801 0.300880 -48.321128 -23.820246 2.772998 142.015658 -47.788077 -105.703643 0.000000 0.000000 0.000000 8.054520 13.786494 7.194008 37.769832 33.095306 5.494568 -126.965031 45.026465 -61.723133 0.000000 0.000000 0.000000 
0.168233 0.925246 1.077456 -3.054245 37.605257 -5.757811 4.931558 -1.320193 14.918727 0.648575 -0.584245 7.820748 1.263886 3.658350 2.419401 0.000000 0.000000 0.000000 -0.500523 0.413318 -19.030802 1.612377 -2.163100 20.424663 -4.218791 -7.948628 16.029724 0.000000 0.000000 0.000000 -2.990560 -0.302791 7.096369 1.457775 -1.023969 1.377622 1.770198 -2.737471 14.356182 -2.099392 3.170259 -6.105375 0.000000 0.000000 0.000000 -9.836452 -9.013539 0.448024 -48.324145 -25.381541 3.387473 142.597018 -47.960299 -109.080129 0.000000 0.000000 0.000000 7.765109 14.440752 7.856430 35.513161 34.742628 5.689625 -126.374555 42.762989 -56.238980 0.000000 0.000000 0.000000 
0.185498 0.910930 1.120766 -2.006770 41.565439 -6.892759 4.830024 -1.487642 14.630003 1.244343 -1.592522 14.637657 2.528029 6.409761 3.853753 0.000000 0.000000 0.000000 -1.132233 0.171117 -16.958240 1.015601 -3.624787 26.523646 -5.488240 -11.376091 8.334261 0.000000 0.000000 0.000000 -2.606602 -0.486535 9.105435 1.885849 -1.245794 1.253936 1.428876 -1.828256 12.902827 0.291406 1.497929 -6.035561 0.000000 0.000000 0.000000 -12.194403 -11.188084 0.253358 -47.157122 -25.851241 3.933697 143.142790 -48.324915 -112.004340 0.000000 0.000000 0.000000 7.521053 15.266156 8.497866 32.906808 36.294982 5.737186 -123.038975 40.170021 -48.444516 0.000000 0.000000 0.000000 
0.203184 0.899289 1.162571 -2.306785 44.155071 -8.267503 5.513096 -1.664493 13.630881 1.434444 -2.864950 20.680879 4.565487 12.250473 10.262446 0.000000 0.000000 0.000000 -1.560189 0.022530 -15.687828 1.957665 -6.231344 32.432665 -5.613193 -13.054642 3.613574 0.000000 0.000000 0.000000 -1.989287 -0.624410 10.033032 1.972881 -1.473076 1.958706 1.445363 -0.808228 12.739212 1.253331 1.202009 -7.328056 0.000000 0.000000 0.000000 -14.506813 -11.224885 -0.793345 -46.001299 -26.579928 4.491520 146.172571 -48.829761 -118.246637 0.000000 0.000000 0.000000 6.180931 16.365060 8.799737 31.113533 38.796404 6.304030 -118.843264 35.827347 -37.920204 0.000000 0.000000 0.000000 
0.220011 0.902053 1.202313 -2.538227 46.464947 -8.625314 6.274352 -1.506886 10.193596 0.293685 -4.967667 29.448023 5.488473 16.315711 18.632102 0.000000 0.000000 0.000000 -1.703987 -0.006226 -14.053735 2.975392 -8.202408 34.915022 -6.124943 -13.845482 5.219161 0.000000 0.000000 0.000000 -1.953826 -0.573090 9.360042 1.982082 -1.565020 2.168551 1.824858 1.845429 13.724377 2.028063 0.795329 -6.717515 0.000000 0.000000 0.000000 -14.744035 -13.540557 -0.825759 -46.649535 -28.330007 5.350981 146.026951 -49.505813 -121.251342 0.000000 0.000000 0.000000 3.868116 16.422062 8.390406 30.974143 38.498819 6.580047 -115.079386 30.594218 -25.866875 0.000000 0.000000 0.000000 
0.234736 0.922292 1.239175 -3.068581 47.464612 -10.491410 7.225411 -1.200844 5.258488 -3.892387 -6.553691 38.584827 10.064770 22.536048 38.086651 0.000000 0.000000 0.000000 -2.294247 -0.085367 -11.077443 4.917481 -10.742566 37.181558 -5.198620 -10.638261 11.715858 0.000000 0.000000 0.000000 -1.617059 -0.921786 11.915377 0.792357 -0.095003 -1.907816 3.121990 2.760740 16.921419 3.366208 -0.300872 -5.455440 0.000000 0.000000 0.000000 -15.901741 -15.117499 -1.138348 -46.976577 -27.545620 5.123755 148.747541 -50.687603 -128.046022 0.000000 0.000000 0.000000 3.315278 15.230715 7.772085 30.465613 38.428194 6.510472 -110.693878 29.792934 -21.546833 0.000000 0.000000 0.000000 
